<svg xmlns="http://www.w3.org/2000/svg" viewBox="0 0 500 360"><path d="M70 330 C120 230,140 110,80 10" stroke="#66753c" stroke-width="11" fill="none"/><path d="M120 280 C200 175,315 120,450 50" stroke="#66753c" stroke-width="9" fill="none"/><path d="M112 255 C80 170,50 105,5 52" stroke="#66753c" stroke-width="8" fill="none"/><g><circle cx="75" cy="65" r="34" fill="#c81d55"/><circle cx="115" cy="58" r="31" fill="#f04f8a"/><circle cx="134" cy="100" r="29" fill="#d9255c"/><circle cx="232" cy="105" r="34" fill="#f04f8a"/><circle cx="278" cy="88" r="29" fill="#f4c247"/><circle cx="315" cy="130" r="31" fill="#d9255c"/><circle cx="85" cy="175" r="32" fill="#f04f8a"/><circle cx="135" cy="205" r="30" fill="#c81d55"/><circle cx="230" cy="210" r="31" fill="#f4c247"/><circle cx="360" cy="190" r="34" fill="#c81d55"/><circle cx="420" cy="130" r="31" fill="#f04f8a"/><circle cx="300" cy="260" r="28" fill="#fff1d6"/></g></svg>