<svg xmlns="http://www.w3.org/2000/svg" viewBox="0 0 720 380"><g fill="none" stroke="#d99a3d" stroke-width="4" stroke-linecap="round" stroke-linejoin="round" opacity=".95"><path d="M120 295h500"/><path d="M170 290V210h35v80M220 290V175h50v115M288 290V225h42v65M350 290V190h56v100M430 290V230h44v60M500 290V170h52v120"/><path d="M100 300c90-50 180-58 270-20 95 40 170 25 250-20"/><path d="M410 310c-20-45-30-90-23-138 5-38 28-74 66-82 40-8 76 15 82 55 7 49-28 91-76 98"/><path d="M443 92c-10 28-7 56 7 78 15 24 19 50 10 83"/><path d="M507 99c36 30 39 86 5 118"/><path d="M388 168c40-3 79 9 120 35"/><path d="M555 102c32 12 60 34 78 63"/><path d="M610 280V150M585 150h50M596 130h28"/></g></svg>