<svg xmlns="http://www.w3.org/2000/svg" viewBox="0 0 1800 760" preserveAspectRatio="xMidYMid slice">
  <defs>
    <linearGradient id="sky" x1="0" y1="0" x2="1" y2="1"><stop offset="0" stop-color="#fff8eb"/><stop offset=".45" stop-color="#dff3fb"/><stop offset="1" stop-color="#ffe2b9"/></linearGradient>
    <linearGradient id="sea" x1="0" y1="0" x2="0" y2="1"><stop offset="0" stop-color="#86c6dd"/><stop offset="1" stop-color="#27779b"/></linearGradient>
    <radialGradient id="sun" cx="45%" cy="34%" r="28%"><stop offset="0" stop-color="#fff1b8" stop-opacity=".95"/><stop offset="1" stop-color="#fff1b8" stop-opacity="0"/></radialGradient>
    <filter id="soft"><feGaussianBlur stdDeviation="2"/></filter>
    <filter id="shadow" x="-20%" y="-20%" width="140%" height="140%"><feDropShadow dx="0" dy="12" stdDeviation="10" flood-color="#18324a" flood-opacity=".20"/></filter>
  </defs>
  <rect width="1800" height="760" fill="url(#sky)"/>
  <rect width="1800" height="760" fill="url(#sun)"/>
  <g opacity=".55" filter="url(#soft)">
    <path d="M0 205 C220 90,390 255,570 150 C760 45,900 210,1090 130 C1280 50,1500 165,1800 80 L1800 330 L0 330Z" fill="#e8d4bd"/>
    <path d="M880 250 C1050 95,1210 115,1380 155 C1545 195,1650 160,1800 230 L1800 365 L850 365Z" fill="#a5b9b7"/>
  </g>
  <path d="M0 350 C360 300,620 388,850 350 C1100 312,1320 280,1800 340 L1800 760 L0 760Z" fill="url(#sea)" opacity=".82"/>
  <g opacity=".38" fill="none" stroke="#fff8ef" stroke-width="5">
    <path d="M40 485 C300 455,430 510,680 475 C920 440,1130 490,1450 450"/>
    <path d="M20 555 C350 520,590 575,900 540 C1240 505,1460 555,1780 515"/>
    <path d="M280 630 C560 600,740 655,1040 620 C1320 590,1460 640,1730 610"/>
  </g>
  <g transform="translate(1060 230)" filter="url(#shadow)">
    <path d="M165 215 L235 20 L305 215 Z" fill="#fffaf0" stroke="#c7a24b" stroke-width="4"/>
    <path d="M235 20 L235 220" stroke="#75413f" stroke-width="4"/>
    <path d="M90 220 Q235 270 380 220 L360 250 Q235 295 110 250Z" fill="#8f2433"/>
    <path d="M130 250 Q235 278 340 250" stroke="#d4af37" stroke-width="5" fill="none"/>
  </g>
  <g transform="translate(1015 440)" filter="url(#shadow)">
    <rect x="0" y="90" width="360" height="38" rx="7" fill="#0d3557"/>
    <rect x="20" y="52" width="340" height="42" rx="7" fill="#b3373a"/>
    <rect x="52" y="14" width="320" height="42" rx="7" fill="#f7f0df" stroke="#d4af37" stroke-width="3"/>
    <path d="M24 68 H350 M16 108 H345" stroke="#d4af37" stroke-opacity=".7" stroke-width="3"/>
    <ellipse cx="260" cy="150" rx="72" ry="20" fill="#1b3d5a" opacity=".2"/>
  </g>
  <g transform="translate(1330 245)" filter="url(#shadow)">
    <ellipse cx="115" cy="205" rx="75" ry="18" fill="#0d3557" opacity=".16"/>
    <path d="M50 80 C40 150,58 214,120 218 C182 222,198 152,186 82Z" fill="#fff7e8" stroke="#d4af37" stroke-width="4"/>
    <path d="M68 108 C105 88,140 92,172 112" fill="none" stroke="#7daec9" stroke-width="5" opacity=".55"/>
    <path d="M80 130 C110 114,145 118,165 136" fill="none" stroke="#7daec9" stroke-width="4" opacity=".55"/>
  </g>
  <g transform="translate(1340 130)">
    <path d="M125 230 C90 160,85 75,120 0" stroke="#5f6f32" stroke-width="8" fill="none"/>
    <path d="M125 230 C160 150,225 90,310 50" stroke="#5f6f32" stroke-width="7" fill="none"/>
    <path d="M120 225 C85 150,25 100,-20 50" stroke="#5f6f32" stroke-width="7" fill="none"/>
    <g>
      <circle cx="92" cy="70" r="24" fill="#c81d55"/><circle cx="120" cy="60" r="22" fill="#f04f8a"/><circle cx="135" cy="88" r="20" fill="#d9255c"/>
      <circle cx="205" cy="90" r="24" fill="#d9255c"/><circle cx="235" cy="70" r="20" fill="#f4c247"/><circle cx="260" cy="104" r="22" fill="#f04f8a"/>
      <circle cx="35" cy="120" r="24" fill="#f04f8a"/><circle cx="70" cy="135" r="20" fill="#d9255c"/><circle cx="150" cy="140" r="22" fill="#f4c247"/>
      <circle cx="295" cy="150" r="24" fill="#c81d55"/><circle cx="250" cy="185" r="20" fill="#fff1d6"/><circle cx="165" cy="205" r="24" fill="#f04f8a"/>
      <circle cx="98" cy="180" r="19" fill="#fff1d6"/><circle cx="15" cy="200" r="22" fill="#c81d55"/>
    </g>
  </g>
  <g transform="translate(0 0)">
    <path d="M0 0 C50 90,40 210,0 280Z" fill="#fff8ef" opacity=".7"/>
    <g opacity=".95">
      <circle cx="45" cy="40" r="34" fill="#c81d55"/><circle cx="82" cy="18" r="28" fill="#f04f8a"/><circle cx="125" cy="50" r="34" fill="#d9255c"/>
      <circle cx="55" cy="115" r="28" fill="#f04f8a"/><circle cx="130" cy="135" r="32" fill="#c81d55"/><circle cx="20" cy="185" r="34" fill="#d9255c"/>
      <circle cx="110" cy="220" r="26" fill="#f04f8a"/>
    </g>
    <path d="M10 0 C80 80,115 175,110 260" stroke="#5f6f32" stroke-width="8" fill="none" opacity=".75"/>
  </g>
  <g transform="translate(0 0)">
    <rect x="0" y="0" width="900" height="760" fill="url(#sky)" opacity=".55"/>
  </g>
</svg>
