<svg xmlns="http://www.w3.org/2000/svg" viewBox="0 0 720 420"><defs><linearGradient id="g" x1="0" y1="0" x2="1" y2="1"><stop stop-color="#ffd9bd"/><stop offset="1" stop-color="#5fa8d3"/></linearGradient><filter id="s"><feDropShadow dx="0" dy="8" stdDeviation="8" flood-opacity=".18"/></filter></defs><rect width="720" height="420" rx="18" fill="#fff8ef"/><rect width="720" height="250" rx="18" fill="url(#g)"/><path d="M0 200 C160 145,280 260,420 190 C540 130,620 185,720 130 L720 250 L0 250Z" fill="#0d3557" opacity=".20"/><path d="M0 235 C180 190,330 280,520 215 C620 180,680 215,720 200 L720 250 L0 250Z" fill="#ffffff" opacity=".45"/><g transform="translate(60 45)"><path d="M40 185 L180 55 L320 185Z" fill="#fffaf0" stroke="#d4af37" stroke-width="9"/><path d="M170 105 L240 145 L170 185Z" fill="#b3373a"/></g><g transform="translate(455 55)"><circle cx="60" cy="60" r="40" fill="#d4af37" opacity=".95"/><text x="60" y="77" text-anchor="middle" font-size="58" fill="white">▶</text></g></svg>