<svg xmlns="http://www.w3.org/2000/svg" viewBox="0 0 720 420"><defs><linearGradient id="g" x1="0" y1="0" x2="1" y2="1"><stop stop-color="#fff8ef"/><stop offset="1" stop-color="#c6e7f2"/></linearGradient><filter id="s"><feDropShadow dx="0" dy="8" stdDeviation="8" flood-opacity=".18"/></filter></defs><rect width="720" height="420" rx="18" fill="#fff8ef"/><rect width="720" height="250" rx="18" fill="url(#g)"/><path d="M0 200 C160 145,280 260,420 190 C540 130,620 185,720 130 L720 250 L0 250Z" fill="#0d3557" opacity=".20"/><path d="M0 235 C180 190,330 280,520 215 C620 180,680 215,720 200 L720 250 L0 250Z" fill="#ffffff" opacity=".45"/><g transform="translate(60 45)"><rect x="60" y="70" width="250" height="150" rx="12" fill="#fffaf0" stroke="#d4af37" stroke-width="8"/><path d="M95 110 H275 M95 145 H250 M95 180 H285" stroke="#0d3557" stroke-width="8" opacity=".7"/><path d="M260 45 L310 95" stroke="#b3373a" stroke-width="14"/></g><g transform="translate(455 55)"><circle cx="60" cy="60" r="40" fill="#d4af37" opacity=".95"/><text x="60" y="77" text-anchor="middle" font-size="58" fill="white">✎</text></g></svg>