<svg xmlns="http://www.w3.org/2000/svg" viewBox="0 0 720 420"><defs><linearGradient id="g" x1="0" y1="0" x2="1" y2="1"><stop stop-color="#fff3da"/><stop offset="1" stop-color="#84c7df"/></linearGradient><filter id="s"><feDropShadow dx="0" dy="8" stdDeviation="8" flood-opacity=".18"/></filter></defs><rect width="720" height="420" rx="18" fill="#fff8ef"/><rect width="720" height="250" rx="18" fill="url(#g)"/><path d="M0 200 C160 145,280 260,420 190 C540 130,620 185,720 130 L720 250 L0 250Z" fill="#0d3557" opacity=".20"/><path d="M0 235 C180 190,330 280,520 215 C620 180,680 215,720 200 L720 250 L0 250Z" fill="#ffffff" opacity=".45"/><g transform="translate(60 45)"><path d="M15 50 C70 20,130 30,180 60 L180 170 C125 145,70 140,15 170Z" fill="#fffaf0" stroke="#d4af37" stroke-width="8"/><path d="M180 60 C235 30,290 20,345 50 L345 170 C290 140,235 145,180 170Z" fill="#fffaf0" stroke="#d4af37" stroke-width="8"/><path d="M180 60 V170" stroke="#d4af37" stroke-width="8"/></g><g transform="translate(455 55)"><circle cx="60" cy="60" r="40" fill="#d4af37" opacity=".95"/><text x="60" y="77" text-anchor="middle" font-size="58" fill="white">📖</text></g></svg>