<svg xmlns="http://www.w3.org/2000/svg" viewBox="0 0 800 430"><g fill="none" stroke="#333" stroke-width="3" stroke-linecap="round" stroke-linejoin="round"><path d="M210 235c80-38 198-38 286 0" opacity=".2"/><path d="M120 285h580"/><path d="M185 242c44-42 105-48 175-3 68-44 128-39 173 3"/><path d="M185 242v72c50-25 104-25 175 0 62-23 116-25 173 0v-72"/><path d="M360 239v75"/><path d="M232 255c32-7 65-5 98 7M396 259c32-8 65-9 101-1M230 281c32-7 65-5 98 7M398 285c32-8 65-9 101-1"/><path d="M565 270h110c18 0 31 16 28 34-4 25-18 40-47 40h-68c-16 0-29-13-29-29v-45z"/><path d="M675 287c35-4 36 43 5 45"/><path d="M575 285h105M575 306h91M575 328h82"/><path d="M250 346h285l-12 18H238z"/><path d="M392 345l60 35 145-1 15-24-142-1-61-35z"/><path d="M408 319l-16 26M452 380l18-26"/></g></svg>
