<svg xmlns="http://www.w3.org/2000/svg" viewBox="0 0 160 100"><path d="M45 48h54v23c0 12-9 18-27 18s-27-6-27-18z" fill="none" stroke="#1c2f43" stroke-width="3"/><path d="M99 55c20-2 21 24 0 25" fill="none" stroke="#1c2f43" stroke-width="3"/><path d="M55 35c-6-10-2-17 5-25M72 35c-4-12 3-20 14-28M89 36c2-12 10-19 24-24" fill="none" stroke="#1c2f43" stroke-width="2" stroke-linecap="round"/><path d="M107 17c14-6 20-1 20 9-12 6-19 1-20-9zM82 11c-6-10 0-17 10-17 5 11 1 17-10 17z" fill="none" stroke="#1c2f43" stroke-width="2"/></svg>
