<svg xmlns="http://www.w3.org/2000/svg" viewBox="0 0 760 420">
  <defs><style>.s{fill:none;stroke:#1c2f43;stroke-width:4;stroke-linecap:round;stroke-linejoin:round}.l{fill:none;stroke:#1c2f43;stroke-width:2;stroke-linecap:round;stroke-linejoin:round;opacity:.75}.w{fill:#fff8ee;opacity:.7}</style></defs>
  <ellipse cx="375" cy="330" rx="255" ry="28" fill="#eadfce" opacity=".35"/>
  <path class="s" d="M150 275c60-42 130-40 210 0 80-40 151-42 212 0"/>
  <path class="s" d="M150 275c55 16 115 20 210 0 95 20 155 16 212 0"/>
  <path class="l" d="M165 260c55-30 115-29 195 5M555 260c-55-30-115-29-195 5"/>
  <path class="l" d="M182 292c55 10 105 10 165-3M538 292c-55 10-105 10-165-3"/>
  <path class="l" d="M205 235c42-18 88-15 135 5M515 235c-42-18-88-15-135 5"/>
  <path class="s" d="M360 275v-64"/>
  <path class="s" d="M244 316h234"/>
  <path class="s" d="M295 345c40 10 89 10 130 0"/>
  <path class="s" d="M385 348h140"/>
  <path class="l" d="M525 348c-10 25 35 25 25 0"/>
  <path class="s" d="M560 215c0 42 0 74 0 74"/>
  <path class="s" d="M538 215c44-10 84-10 120 0 3 55-4 95-60 98-54-2-62-43-60-98z"/>
  <path class="l" d="M560 230c28-5 55-5 82 0M560 250c28-5 55-5 82 0M560 270c28-5 55-5 82 0"/>
  <path class="s" d="M600 198c-10-75 15-130 72-166"/>
  <path class="l" d="M636 74c-27-9-45 8-35 32 26 8 45-7 35-32zM673 32c-4 32 15 47 40 33 3-31-15-47-40-33zM615 137c-28-8-47 9-36 34 28 8 48-8 36-34zM660 116c-4 29 13 44 36 32 4-29-13-44-36-32z"/>
</svg>
