<svg xmlns="http://www.w3.org/2000/svg" viewBox="0 0 210 180"><g fill="none" stroke="#0d3557" stroke-width="3" stroke-linecap="round" opacity=".9"><path d="M62 78c1-31 23-53 54-53 32 0 55 23 55 56"/><path d="M49 105c0-52 28-84 67-84 42 0 72 31 72 84"/><path d="M72 118c7-20 8-35 8-50 0-18 14-31 35-31 23 0 36 15 36 36 0 46-6 70-21 97"/><path d="M98 169c11-32 16-61 16-91"/><path d="M39 145c16-26 22-44 22-71"/><path d="M152 145c8-26 10-48 10-71"/><path d="M92 76c0-13 9-22 23-22 14 0 23 10 23 24 0 31-3 61-13 90"/></g></svg>