<svg xmlns="http://www.w3.org/2000/svg" viewBox="0 0 180 160"><g fill="none" stroke="#e7e0d4" stroke-width="4" stroke-linecap="round"><path d="M49 71c1-25 18-43 43-43 26 0 44 18 44 45"/><path d="M39 91c0-42 22-68 54-68 34 0 58 25 58 68"/><path d="M57 101c5-16 6-29 6-41 0-14 11-25 28-25 18 0 29 12 29 29 0 37-5 56-17 78"/><path d="M78 141c9-26 13-49 13-73"/><path d="M31 120c13-21 18-35 18-57"/><path d="M120 120c6-21 8-39 8-57"/><path d="M73 62c0-10 7-17 18-17s18 8 18 19c0 25-2 49-10 73"/></g></svg>